<?xml version="1.0" encoding="UTF-8"?><svg id="Layer_1" xmlns="http://www.w3.org/2000/svg" width="517.5" height="340" viewBox="0 0 517.5 340"><defs><style>.cls-1{fill:none;stroke:#000;stroke-miterlimit:10;}.cls-2{stroke-width:0px;}</style></defs><path class="cls-2" d="M11.81,19.95h23.6l16.45,59.12,16.24-59.12h22.92l-27.13,82.16h-24.48L11.81,19.95Z"/><path class="cls-2" d="M100.21,19.95h22.63v82.16h-22.63V19.95Z"/><path class="cls-2" d="M139.96,19.95h22.58v61.93h35.24v20.23h-57.82V19.95Z"/><path class="cls-2" d="M209.27,19.95h33.55c6.61,0,11.95,1.01,16.03,3.03,4.07,2.02,7.44,4.91,10.09,8.69,2.66,3.77,4.59,8.16,5.78,13.17,1.2,5.01,1.79,10.31,1.79,15.92,0,8.78-.89,15.59-2.67,20.43-1.78,4.84-4.25,8.89-7.4,12.16-3.16,3.27-6.55,5.45-10.17,6.53-4.95,1.49-9.44,2.24-13.46,2.24h-33.55V19.95ZM231.85,38.55v44.89h5.53c4.72,0,8.08-.59,10.07-1.77s3.56-3.23,4.69-6.16c1.13-2.93,1.69-7.69,1.69-14.26,0-8.71-1.26-14.66-3.79-17.88-2.53-3.21-6.71-4.82-12.56-4.82h-5.63Z"/><path class="cls-2" d="M178.6,272.42c-.72-2.49-1.68-8.84-2.16-17l-6.95-98.35-67.3,112.4-69.46-115.12-6.47,100.61c-.72,9.29-.72,17.45-.72,17.45h-4.31s.24-10.65.72-18.13l7.42-114.66,73.05,121.24,70.89-118.74,7.9,112.85c.48,7.25,1.44,14.5,2.16,17.45h-4.79Z"/><path class="cls-2" d="M232.73,254.52c-1.68,3.85-4.31,9.97-6.95,17.9h-5.03c2.63-7.48,4.55-12.01,7.19-18.13l51.01-118.29,54.37,120.78c1.68,3.85,5.99,12.01,7.9,15.64h-4.79c-2.39-3.63-6.71-12.01-8.62-16.32l-12.93-28.55h-70.65l-11.5,26.97ZM246.15,223.47h66.82l-34.25-76.14-32.57,76.14Z"/><path class="cls-2" d="M418.11,273.1c-8.86,0-31.38-1.59-31.38-1.59v-138.68c9.1-1.13,24.43-2.49,33.53-2.49,23.23,0,36.88,2.04,48.38,6.35,28.5,10.65,44.79,36.03,44.79,66.4,0,43.06-32.09,70.02-95.32,70.02ZM477.98,145.75c-12.21-7.48-30.42-11.33-54.13-11.33-12.45,0-24.67,1.13-32.81,2.27v130.98c8.14.68,20.12,1.36,28.26,1.36,62.99,0,89.33-28.78,89.33-65.49,0-23.34-8.62-44.42-30.66-57.79Z"/><path class="cls-2" d="M349.38,326.57c-1.26,0-2.68-.23-3.91-.7v-.47c1.12.47,2.68.75,3.88.75,3.29,0,4.59-1.73,4.59-3.23,0-1.62-1.09-2.83-4.53-4.57-2.26-1.15-3.32-2.3-3.32-3.79,0-1.99,1.59-3.33,4.41-3.33,1.21,0,2.68.3,3.26.47v.52s-1.23-.59-3.26-.59c-2.41,0-3.82,1.08-3.82,2.93,0,1.29,1.12,2.37,3.03,3.37,2.23,1.17,4.82,2.46,4.82,4.97,0,2.06-2,3.68-5.15,3.68Z"/><path class="cls-2" d="M363.29,324.27s0,.87.06,2.01h-.59c-.03-.61-.06-2.01-.06-2.01v-10s.03-1.59.12-2.6h.59c-.12,1.15-.12,2.6-.12,2.6v10Z"/><path class="cls-2" d="M372.05,326.29c-.06-.56-.06-1.29-.06-1.29v-12.93l15.55,12.44v-11.03s.03-1.15.12-1.8h.53c-.12.59-.12,1.8-.12,1.8v12.13l-15.55-12.44v11.83s0,.66.06,1.29h-.53Z"/><path class="cls-2" d="M411.07,312.91c-.97-.49-3.65-1.19-6.17-1.19-4.56,0-8.14,2.72-8.14,7.21,0,5.93,6.29,7.19,9.2,7.19,1.91,0,4.29-.82,4.79-1.12,0,0,0,.52,0,.49-1.91.8-3.73,1.05-5.03,1.05-3.44,0-6.91-1.45-8.41-3.68-.79-1.17-1.15-2.48-1.15-3.91,0-4.52,3.56-7.66,8.73-7.66,2.73,0,5.47.77,6.29,1.1l-.12.51Z"/><path class="cls-2" d="M418.84,326.26v-14.62h7.79v.52c-.32-.07-1.44-.09-2.91-.09h-4.29v6.39h4.94c.5,0,1.12,0,2.03-.07v.56c-.15-.02-1.15-.07-1.82-.07h-5.15v6.96h5.88c.62,0,1.68,0,2.12-.05v.47h-8.59Z"/><path class="cls-2" d="M442.77,326.21v-.21s5.44-4.26,8.14-6.77c1.21-1.12,2.03-2.2,2.03-3.75,0-2.58-2.21-3.96-5.56-3.96-1.79,0-3.32.49-4.26.94v-.47c.71-.33,2.29-.89,4.32-.89,3.32,0,6.09,1.38,6.09,4.38,0,1.55-.71,2.62-2.21,4.03-2.18,2.06-7.38,6.23-7.38,6.23h5.38s2.97,0,4.21-.14v.47c-1.29.14-4.21.14-4.21.14h-6.56Z"/><path class="cls-2" d="M466.74,326.66c-1.97,0-3.41-.63-4.44-1.69-1.68-1.73-1.68-3.93-1.68-5.83,0-2.15.29-4.71,1.94-6.25,1-.91,2.09-1.59,4.2-1.59,4.29,0,7.2,2.3,7.2,7.8,0,4.8-2.06,7.57-7.23,7.57ZM471.06,313.03c-1.12-.89-2.59-1.31-4.32-1.31s-2.82.61-3.67,1.41c-1.53,1.5-1.82,3.63-1.82,6.04,0,2.76.32,4.26,1.62,5.62.85.87,2.26,1.48,3.88,1.48,1.94,0,3.38-.42,4.38-1.19,1.76-1.31,2.26-3.51,2.26-5.95,0-2.9-.71-4.8-2.32-6.09Z"/><path class="cls-2" d="M485.3,314.74v8.88s0,1.43.06,2.67h-.59c-.03-.89-.06-2.67-.06-2.67v-8.88s.03-1.83.09-2.74c-3.94,1.5-5.26,1.8-5.26,1.8v-.45s.76-.21,1.85-.59c1.41-.49,4.03-1.48,4.03-1.48-.09,1.24-.12,3.44-.12,3.44Z"/><path class="cls-2" d="M496.74,323.69c-.56.87-1.09,1.66-1.59,2.6h-.65c.62-1.15,1.12-1.9,1.71-2.81l7.26-11.45h-10.97v-.42h11.91l-7.67,12.09Z"/><line class="cls-1" x1="11.5" y1="321.5" x2="327" y2="320"/><line class="cls-1" x1="296.92" y1="25.7" x2="504.5" y2="24.5"/></svg>